<svg xmlns="http://www.w3.org/2000/svg" data-name="Layer 1" viewBox="0 0 64 80" x="0px" y="0px"><title>Icon Design 3</title><path d="M24.88,37.16h0a.51.51,0,0,1-.5-.51C24.58,27,29.78,23,34.1,21.28a.5.5,0,1,1,.36.93c-4,1.58-8.89,5.37-9.08,14.46A.49.49,0,0,1,24.88,37.16Z"/><path d="M33.39,38.74h0a.5.5,0,0,1-.5-.49h0c.18-8.59,3.39-12.77,6-14.78a9.75,9.75,0,0,1,6.25-2.2.5.5,0,1,1-.25,1,9.48,9.48,0,0,0-5.71,2.28C35.86,27.23,34,32,33.89,38.25A.49.49,0,0,1,33.39,38.74Z"/><polygon points="33.2 42.28 33.2 42.26 34.2 42.26 33.2 42.28"/><path d="M33,26a.52.52,0,0,1-.21,0,.5.5,0,0,1-.25-.66,16.84,16.84,0,0,1,.8-1.53.5.5,0,0,1,.86.52,11.83,11.83,0,0,0-.75,1.42A.48.48,0,0,1,33,26Z"/><path d="M31,33.52H31a.5.5,0,0,1-.43-.56,34.76,34.76,0,0,1,.92-4.59.5.5,0,0,1,1,.26,37,37,0,0,0-.89,4.46A.5.5,0,0,1,31,33.52Z"/><path d="M30.8,35.51h-.05A.52.52,0,0,1,30.3,35c0-.32.07-.64.1-1a.51.51,0,0,1,.56-.44.5.5,0,0,1,.44.55c0,.31-.07.62-.1.94A.51.51,0,0,1,30.8,35.51Z"/><path d="M29.46,30.23h-.12a.5.5,0,0,1-.37-.6c.19-.82.4-1.59.62-2.3a.51.51,0,0,1,.63-.32.49.49,0,0,1,.32.63c-.21.68-.42,1.42-.6,2.21A.5.5,0,0,1,29.46,30.23Z"/><path d="M28.66,35.23H28.6a.5.5,0,0,1-.44-.55c0-.41.09-.81.14-1.2a.5.5,0,0,1,.56-.44.51.51,0,0,1,.43.57c-.05.38-.09.77-.14,1.18A.49.49,0,0,1,28.66,35.23Z"/><path d="M37.86,42.76H15.67v-.5a3.6,3.6,0,0,1,3.43-3.67,3.5,3.5,0,0,1,3.23-2.19,3.31,3.31,0,0,1,1.68.45,2.53,2.53,0,0,1,.37-.42h0l.19-.16a2.57,2.57,0,0,1,3.34.21,2.54,2.54,0,0,1,1.24-.32,2.63,2.63,0,0,1,2.51,2,3.33,3.33,0,0,1,1.62-.41h.11a2.4,2.4,0,0,1,.52.07,3.53,3.53,0,0,1,2.6,2.11,2.72,2.72,0,0,1,1.35,2.33Zm-21.15-1H36.78a1.67,1.67,0,0,0-.88-1l-.18-.09-.07-.19a2.59,2.59,0,0,0-1.95-1.67,2.11,2.11,0,0,0-.33,0h-.09a2.38,2.38,0,0,0-1.69.7l-1,.94L30.74,39v-.19a1.64,1.64,0,0,0-1.59-1.69,1.53,1.53,0,0,0-1,.37l-.43.37-.31-.46A1.55,1.55,0,0,0,25.34,37l-.16.12a1.6,1.6,0,0,0-.53.69l-.26.63L23.86,38a2.37,2.37,0,0,0-1.53-.55,2.52,2.52,0,0,0-2.4,1.85l-.14.46-.46-.12h-.14A2.56,2.56,0,0,0,16.71,41.76Z"/><rect x="37.36" y="41.76" width="0.13" height="1"/><path d="M47.83,22.24H16.17a.5.5,0,0,1-.5-.5.5.5,0,0,1,.5-.5H47.83a.5.5,0,0,1,.5.5A.5.5,0,0,1,47.83,22.24Z"/><text x="0" y="79" fill="#000000" font-size="5px" font-weight="bold" font-family="'Helvetica Neue', Helvetica, Arial-Unicode, Arial, Sans-serif">Created by Ian Rahmadi Kurniawan</text><text x="0" y="84" fill="#000000" font-size="5px" font-weight="bold" font-family="'Helvetica Neue', Helvetica, Arial-Unicode, Arial, Sans-serif">from the Noun Project</text></svg>