<svg xmlns="http://www.w3.org/2000/svg" xmlns:xlink="http://www.w3.org/1999/xlink" version="1.1" enable-background="new 0 0 64 64" xml:space="preserve" width="51" height="51"><rect id="backgroundrect" width="100%" height="100%" x="0" y="0" fill="none" stroke="none" class="" style=""/><g class="currentLayer" style=""><title>Layer 1</title><g id="svg_1" class=""><path fill-rule="evenodd" clip-rule="evenodd" d="M27.840000930786132,0.11115764617919943 c-6.407,-0.459 -9.223,0.535 -13.2,2.4 c-0.6790000000000002,0.19800000000000004 -0.6220000000000001,-0.3380000000000001 -1.2,-0.24000000000000002 c-1.094,2.242 -2.8120000000000003,1.31 -3.6,3.36 c-0.9570000000000001,0.132 -0.7230000000000001,0.132 -1.6800000000000002,0 c-0.7320000000000001,0.9600000000000001 -0.33100000000000007,1.577 -1.2,2.4 c-0.010000000000000002,-0.33100000000000007 0.11300000000000002,-0.527 0.24000000000000002,-0.7200000000000001 c-0.7680000000000001,0.7520000000000001 -1.843,1.197 -1.6800000000000002,2.88 c-0.7530000000000001,-0.267 -0.6340000000000001,-0.11200000000000002 -1.2,0.24000000000000002 c-1.8130000000000002,3.517 -4.142,7.301 -3.36,11.04 c-0.453,-0.18000000000000002 -0.16700000000000004,-0.7160000000000001 -0.7200000000000001,-0.24000000000000002 c-0.263,0.914 0.6350000000000001,1.499 -0.24000000000000002,1.6800000000000002 c0,1.2 0,2.4 0,3.6 c0.8830000000000001,9.818 6.36,16.522 13.2,21.12 c2.739,0.49100000000000005 4.925,2.894 7.44,2.16 c8.877,2.545 17.303,-0.7010000000000001 22.56,-6 c4.057,-4.09 7.28,-9.944 7.92,-16.56 C52.46900093078613,13.286157646179198 41.86400093078613,1.1161576461791993 27.840000930786132,0.11115764617919943 zM48.720000930786135,28.4311576461792 c-1.485,11.816 -13.703,22.573 -27.12,19.2 c-2.01,-0.505 -3.232,-1.771 -5.76,-2.16 c-0.134,-0.48900000000000005 -0.7220000000000001,-0.47100000000000003 -0.24000000000000002,-0.9600000000000001 c-1.572,0.3460000000000001 -2.174,-1.6380000000000001 -4.08,-1.6800000000000002 c0.19500000000000003,-0.8300000000000001 -0.44800000000000006,-1.013 0,-1.44 c-0.32400000000000007,-0.796 -1.5590000000000002,-0.6810000000000002 -2.16,-1.199 c0.10500000000000001,-0.35600000000000004 0.30700000000000005,0.09500000000000003 0.7200000000000001,0 c-0.9,-0.46 -1.102,-1.6190000000000002 -2.4,-1.681 c0.134,-0.48900000000000005 0.7220000000000001,-0.47100000000000003 0.24000000000000002,-0.9600000000000001 c-2.283,-2.3120000000000003 -2.114,-6.076 -4.5600000000000005,-8.64 c0.20900000000000002,-0.6980000000000002 0.35900000000000004,-0.27 0.9600000000000001,-0.24000000000000002 c-1.187,-3.84 0.267,-9.374 0.9600000000000001,-12.48 c1.4260000000000002,-1.214 2.195,-3.084 2.88,-5.04 c1.9100000000000001,-1.209 3.295,-2.944 4.8,-4.5600000000000005 c3.4290000000000003,-1.192 6.288,-3.462 10.08,-3.84 c8.124,-0.811 16.239,3.019 21.12,8.16 C47.327000930786134,15.9911576461792 49.59000093078613,21.5071576461792 48.720000930786135,28.4311576461792 z" id="svg_2"/></g></g></svg>