<svg xmlns="http://www.w3.org/2000/svg" xmlns:xlink="http://www.w3.org/1999/xlink" version="1.1" style="enable-background:new 0 0 24 24;" xml:space="preserve" width="14" height="18"><rect id="backgroundrect" width="100%" height="100%" x="0" y="0" fill="none" stroke="none" class="" style=""/><g class="currentLayer" style=""><title>Layer 1</title><path d="M13.419000301361084,4.355999736785889 l-4.175,-4.258 c-0.06400000000000002,-0.06300000000000001 -0.14900000000000002,-0.09800000000000003 -0.23700000000000002,-0.09800000000000003 H0.33300030136108383 c-0.18400000000000002,0 -0.3330000000000001,0.15000000000000002 -0.3330000000000001,0.3340000000000001 v17.232 c0,0.18500000000000003 0.14900000000000002,0.3350000000000001 0.3330000000000001,0.3350000000000001 h12.85 c0.18600000000000003,0 0.3360000000000001,-0.15000000000000002 0.3360000000000001,-0.3350000000000001 V4.590999736785889 C13.518000301361084,4.504999736785889 13.482000301361083,4.418999736785889 13.419000301361084,4.355999736785889 zM9.341000301361085,4.256999736785889 V1.1529997367858886 l3.047,3.104 H9.341000301361085 zM9.007000301361083,4.925999736785888 h3.8440000000000003 v12.308 H0.6680003013610838 V0.669999736785889 h8.007 V4.590999736785889 C8.675000301361084,4.775999736785889 8.823000301361084,4.925999736785888 9.007000301361083,4.925999736785888 z" id="svg_1" class=""/></g></svg>