<?xml version="1.0" standalone="no"?>
<!DOCTYPE svg PUBLIC "-//W3C//DTD SVG 20010904//EN"
 "http://www.w3.org/TR/2001/REC-SVG-20010904/DTD/svg10.dtd">
<svg version="1.0" xmlns="http://www.w3.org/2000/svg"
 width="483.000000pt" height="483.000000pt" viewBox="0 0 483.000000 483.000000"
 preserveAspectRatio="xMidYMid meet">
<metadata>
Created by potrace 1.11, written by Peter Selinger 2001-2013
</metadata>
<g transform="translate(0.000000,483.000000) scale(0.100000,-0.100000)"
fill="#000000" stroke="none">
<path d="M2207 4794 c-1 -1 -36 -5 -77 -8 -224 -20 -435 -79 -670 -188 -93
-43 -115 -49 -137 -32 -33 24 -56 16 -88 -32 -30 -44 -70 -74 -175 -129 -65
-34 -92 -58 -118 -105 l-19 -35 -77 -1 c-89 -1 -91 -2 -125 -106 -13 -37 -31
-78 -42 -90 l-20 -23 6 29 6 28 -39 -33 c-73 -63 -117 -136 -111 -181 5 -37
-1 -44 -34 -40 -25 3 -41 -2 -60 -20 -34 -30 -222 -403 -269 -533 -60 -167
-72 -226 -72 -373 -1 -99 -4 -129 -12 -117 -6 8 -16 15 -22 15 -17 0 -33 -37
-28 -62 3 -13 8 -38 12 -56 5 -27 3 -36 -13 -47 -18 -12 -19 -26 -17 -202 1
-103 7 -224 13 -268 7 -44 15 -96 18 -115 8 -58 60 -259 88 -345 146 -438 406
-813 795 -1149 83 -72 129 -107 286 -222 17 -12 50 -27 75 -34 69 -18 126 -40
232 -92 215 -106 289 -126 388 -108 28 5 62 2 111 -11 308 -81 660 -84 988 -8
447 103 877 366 1172 718 40 47 75 88 78 91 17 16 117 159 170 245 140 221
251 481 314 731 22 87 29 124 50 248 21 119 27 425 12 561 -78 718 -473 1348
-1089 1735 -99 62 -354 190 -378 190 -8 0 -19 4 -24 9 -12 11 -170 62 -280 90
-122 31 -275 55 -420 67 -71 6 -393 12 -398 8z m388 -257 c17 -3 55 -9 85 -12
30 -4 96 -16 145 -27 50 -10 101 -21 115 -24 72 -14 341 -113 457 -169 367
-176 687 -426 806 -628 196 -337 324 -672 363 -952 16 -118 19 -169 19 -320 0
-201 -11 -304 -48 -470 -42 -184 -144 -432 -252 -610 -187 -309 -458 -579
-770 -767 -173 -105 -433 -208 -607 -243 -61 -12 -75 -14 -113 -20 -112 -17
-194 -22 -335 -19 -85 1 -166 5 -180 8 -14 2 -56 9 -95 15 -128 19 -223 49
-367 117 -155 72 -222 98 -285 108 -43 8 -89 55 -79 82 4 10 -3 14 -27 14 -36
0 -84 25 -174 92 -36 26 -84 52 -112 59 -53 13 -57 21 -65 119 -2 19 -4 40 -5
46 -1 12 -40 31 -134 65 -39 14 -55 25 -49 31 6 6 17 6 31 -1 12 -7 21 -10 21
-8 0 7 -116 124 -140 140 -13 9 -35 17 -47 17 -28 0 -29 17 -3 45 l21 22 -50
59 c-56 65 -113 175 -161 309 -17 50 -38 104 -45 120 -7 17 -16 41 -20 55 -20
66 -108 221 -157 276 -11 13 -16 28 -12 38 6 15 14 17 47 12 35 -6 39 -5 32
11 -24 61 -34 179 -31 348 3 99 7 198 10 220 17 114 39 232 61 336 14 63 27
124 29 135 16 79 31 114 65 149 79 84 154 217 204 363 16 48 31 71 57 91 110
81 183 151 332 312 80 88 93 97 170 129 46 18 162 71 258 118 295 142 413 184
589 206 92 12 383 14 446 3z"/>
</g>
</svg>
